<svg width="213" height="33" viewBox="0 0 213 33" fill="none" xmlns="http://www.w3.org/2000/svg">
<path d="M19.0585 11.648C19.0585 12.992 18.7345 14.252 18.0865 15.428C17.4625 16.604 16.4665 17.552 15.0985 18.272C13.7545 18.992 12.0505 19.352 9.9865 19.352H5.7745V29H0.734497V3.872H9.9865C11.9305 3.872 13.5865 4.208 14.9545 4.88C16.3225 5.552 17.3425 6.476 18.0145 7.652C18.7105 8.828 19.0585 10.16 19.0585 11.648ZM9.7705 15.284C11.1625 15.284 12.1945 14.972 12.8665 14.348C13.5385 13.7 13.8745 12.8 13.8745 11.648C13.8745 9.2 12.5065 7.976 9.7705 7.976H5.7745V15.284H9.7705Z" fill="white"/>
<path d="M29.6928 29.324C27.7728 29.324 26.0448 28.904 24.5088 28.064C22.9728 27.2 21.7608 25.988 20.8728 24.428C20.0088 22.868 19.5768 21.068 19.5768 19.028C19.5768 16.988 20.0208 15.188 20.9088 13.628C21.8208 12.068 23.0568 10.868 24.6168 10.028C26.1768 9.164 27.9168 8.732 29.8368 8.732C31.7568 8.732 33.4968 9.164 35.0568 10.028C36.6168 10.868 37.8408 12.068 38.7288 13.628C39.6408 15.188 40.0968 16.988 40.0968 19.028C40.0968 21.068 39.6288 22.868 38.6928 24.428C37.7808 25.988 36.5328 27.2 34.9488 28.064C33.3888 28.904 31.6368 29.324 29.6928 29.324ZM29.6928 24.932C30.6048 24.932 31.4568 24.716 32.2488 24.284C33.0648 23.828 33.7128 23.156 34.1928 22.268C34.6728 21.38 34.9128 20.3 34.9128 19.028C34.9128 17.132 34.4088 15.68 33.4008 14.672C32.4168 13.64 31.2048 13.124 29.7648 13.124C28.3248 13.124 27.1128 13.64 26.1288 14.672C25.1688 15.68 24.6888 17.132 24.6888 19.028C24.6888 20.924 25.1568 22.388 26.0928 23.42C27.0528 24.428 28.2528 24.932 29.6928 24.932Z" fill="white"/>
<path d="M47.0339 12.152C47.6819 11.096 48.5219 10.268 49.5539 9.668C50.6099 9.068 51.8099 8.768 53.1539 8.768V14.06H51.8219C50.2379 14.06 49.0379 14.432 48.2219 15.176C47.4299 15.92 47.0339 17.216 47.0339 19.064V29H41.9939V9.056H47.0339V12.152Z" fill="white"/>
<path d="M60.6166 13.196V22.844C60.6166 23.516 60.7726 24.008 61.0846 24.32C61.4206 24.608 61.9726 24.752 62.7406 24.752H65.0806V29H61.9126C57.6646 29 55.5406 26.936 55.5406 22.808V13.196H53.1646V9.056H55.5406V4.124H60.6166V9.056H65.0806V13.196H60.6166Z" fill="white"/>
<path d="M76.0496 13.196H72.5576V29H67.4456V13.196H65.1776V9.056H67.4456V8.048C67.4456 5.6 68.1416 3.8 69.5336 2.648C70.9256 1.496 73.0256 0.956 75.8336 1.028V5.276C74.6096 5.252 73.7576 5.456 73.2776 5.888C72.7976 6.32 72.5576 7.1 72.5576 8.228V9.056H76.0496V13.196Z" fill="white"/>
<path d="M86.3717 29.324C84.4517 29.324 82.7237 28.904 81.1877 28.064C79.6517 27.2 78.4398 25.988 77.5518 24.428C76.6878 22.868 76.2557 21.068 76.2557 19.028C76.2557 16.988 76.6997 15.188 77.5877 13.628C78.4997 12.068 79.7357 10.868 81.2957 10.028C82.8557 9.164 84.5957 8.732 86.5157 8.732C88.4357 8.732 90.1757 9.164 91.7357 10.028C93.2957 10.868 94.5197 12.068 95.4077 13.628C96.3197 15.188 96.7757 16.988 96.7757 19.028C96.7757 21.068 96.3078 22.868 95.3717 24.428C94.4598 25.988 93.2117 27.2 91.6277 28.064C90.0677 28.904 88.3157 29.324 86.3717 29.324ZM86.3717 24.932C87.2837 24.932 88.1357 24.716 88.9277 24.284C89.7437 23.828 90.3917 23.156 90.8717 22.268C91.3517 21.38 91.5917 20.3 91.5917 19.028C91.5917 17.132 91.0877 15.68 90.0798 14.672C89.0957 13.64 87.8837 13.124 86.4437 13.124C85.0037 13.124 83.7917 13.64 82.8077 14.672C81.8477 15.68 81.3677 17.132 81.3677 19.028C81.3677 20.924 81.8357 22.388 82.7717 23.42C83.7317 24.428 84.9317 24.932 86.3717 24.932Z" fill="white"/>
<path d="M103.713 2.36V29H98.6728V2.36H103.713Z" fill="white"/>
<path d="M109.448 6.68C108.56 6.68 107.816 6.404 107.216 5.852C106.64 5.276 106.352 4.568 106.352 3.728C106.352 2.888 106.64 2.192 107.216 1.64C107.816 1.064 108.56 0.775999 109.448 0.775999C110.336 0.775999 111.068 1.064 111.644 1.64C112.244 2.192 112.544 2.888 112.544 3.728C112.544 4.568 112.244 5.276 111.644 5.852C111.068 6.404 110.336 6.68 109.448 6.68ZM111.932 9.056V29H106.892V9.056H111.932Z" fill="white"/>
<path d="M123.968 29.324C122.048 29.324 120.32 28.904 118.784 28.064C117.248 27.2 116.036 25.988 115.148 24.428C114.284 22.868 113.852 21.068 113.852 19.028C113.852 16.988 114.296 15.188 115.184 13.628C116.096 12.068 117.332 10.868 118.892 10.028C120.452 9.164 122.192 8.732 124.112 8.732C126.032 8.732 127.772 9.164 129.332 10.028C130.892 10.868 132.116 12.068 133.004 13.628C133.916 15.188 134.372 16.988 134.372 19.028C134.372 21.068 133.904 22.868 132.968 24.428C132.056 25.988 130.808 27.2 129.224 28.064C127.664 28.904 125.912 29.324 123.968 29.324ZM123.968 24.932C124.88 24.932 125.732 24.716 126.524 24.284C127.34 23.828 127.988 23.156 128.468 22.268C128.948 21.38 129.188 20.3 129.188 19.028C129.188 17.132 128.684 15.68 127.676 14.672C126.692 13.64 125.48 13.124 124.04 13.124C122.6 13.124 121.388 13.64 120.404 14.672C119.444 15.68 118.964 17.132 118.964 19.028C118.964 20.924 119.432 22.388 120.368 23.42C121.328 24.428 122.528 24.932 123.968 24.932Z" fill="white"/>
<path d="M146.338 23.555C146.948 23.665 147.458 23.965 147.868 24.455C148.288 24.945 148.498 25.52 148.498 26.18C148.498 26.72 148.368 27.205 148.108 27.635C147.858 28.055 147.478 28.39 146.968 28.64C146.468 28.88 145.858 29 145.138 29H141.793V18.47H145.078C146.128 18.47 146.918 18.715 147.448 19.205C147.988 19.685 148.258 20.31 148.258 21.08C148.258 21.75 148.078 22.295 147.718 22.715C147.358 23.125 146.898 23.405 146.338 23.555ZM142.468 23.255H145.108C145.898 23.255 146.503 23.07 146.923 22.7C147.353 22.32 147.568 21.8 147.568 21.14C147.568 20.5 147.358 19.995 146.938 19.625C146.518 19.255 145.883 19.07 145.033 19.07H142.468V23.255ZM145.093 28.415C145.943 28.415 146.608 28.215 147.088 27.815C147.578 27.405 147.823 26.845 147.823 26.135C147.823 25.435 147.573 24.88 147.073 24.47C146.583 24.05 145.908 23.84 145.048 23.84H142.468V28.415H145.093Z" fill="white"/>
<path d="M156.09 20.855L151.35 32.825H150.66L152.175 29L148.755 20.855H149.49L152.55 28.25L155.4 20.855H156.09Z" fill="white"/>
<path d="M170.154 18.695V29H169.479V20.105L165.519 29H164.979L161.004 20.105V29H160.329V18.695H161.049L165.249 28.115L169.449 18.695H170.154Z" fill="white"/>
<path d="M171.464 24.92C171.464 24.08 171.629 23.345 171.959 22.715C172.299 22.085 172.764 21.6 173.354 21.26C173.954 20.92 174.634 20.75 175.394 20.75C176.254 20.75 176.984 20.96 177.584 21.38C178.184 21.8 178.604 22.335 178.844 22.985V20.855H179.519V29H178.844V26.855C178.604 27.515 178.179 28.06 177.569 28.49C176.969 28.91 176.244 29.12 175.394 29.12C174.634 29.12 173.954 28.95 173.354 28.61C172.764 28.26 172.299 27.77 171.959 27.14C171.629 26.5 171.464 25.76 171.464 24.92ZM178.844 24.92C178.844 24.21 178.694 23.585 178.394 23.045C178.104 22.495 177.704 22.075 177.194 21.785C176.684 21.485 176.114 21.335 175.484 21.335C174.824 21.335 174.244 21.48 173.744 21.77C173.244 22.05 172.854 22.46 172.574 23C172.294 23.54 172.154 24.18 172.154 24.92C172.154 25.66 172.294 26.3 172.574 26.84C172.854 27.38 173.244 27.795 173.744 28.085C174.254 28.375 174.834 28.52 175.484 28.52C176.114 28.52 176.684 28.375 177.194 28.085C177.714 27.785 178.119 27.365 178.409 26.825C178.699 26.275 178.844 25.64 178.844 24.92Z" fill="white"/>
<path d="M181.902 22.535C182.102 21.935 182.457 21.48 182.967 21.17C183.477 20.85 184.127 20.69 184.917 20.69V21.395H184.692C183.892 21.395 183.227 21.625 182.697 22.085C182.167 22.535 181.902 23.275 181.902 24.305V29H181.227V20.855H181.902V22.535Z" fill="white"/>
<path d="M185.301 24.92C185.301 24.07 185.466 23.33 185.796 22.7C186.136 22.07 186.601 21.59 187.191 21.26C187.791 20.92 188.476 20.75 189.246 20.75C190.266 20.75 191.101 21.005 191.751 21.515C192.411 22.025 192.821 22.71 192.981 23.57H192.276C192.146 22.87 191.806 22.32 191.256 21.92C190.716 21.52 190.046 21.32 189.246 21.32C188.646 21.32 188.101 21.455 187.611 21.725C187.121 21.985 186.726 22.39 186.426 22.94C186.136 23.48 185.991 24.14 185.991 24.92C185.991 25.71 186.136 26.375 186.426 26.915C186.726 27.455 187.121 27.86 187.611 28.13C188.101 28.4 188.646 28.535 189.246 28.535C190.046 28.535 190.716 28.335 191.256 27.935C191.806 27.535 192.146 26.985 192.276 26.285H192.981C192.821 27.135 192.411 27.82 191.751 28.34C191.091 28.86 190.256 29.12 189.246 29.12C188.476 29.12 187.791 28.95 187.191 28.61C186.601 28.27 186.136 27.785 185.796 27.155C185.466 26.515 185.301 25.77 185.301 24.92Z" fill="white"/>
<path d="M201.622 24.38C201.622 24.74 201.612 25.01 201.592 25.19H194.557C194.577 25.92 194.737 26.535 195.037 27.035C195.337 27.535 195.732 27.91 196.222 28.16C196.712 28.41 197.247 28.535 197.827 28.535C198.627 28.535 199.297 28.34 199.837 27.95C200.377 27.55 200.717 27.01 200.857 26.33H201.562C201.402 27.16 200.992 27.835 200.332 28.355C199.672 28.865 198.837 29.12 197.827 29.12C197.067 29.12 196.387 28.95 195.787 28.61C195.187 28.27 194.717 27.785 194.377 27.155C194.037 26.515 193.867 25.77 193.867 24.92C193.867 24.07 194.032 23.33 194.362 22.7C194.702 22.07 195.172 21.59 195.772 21.26C196.372 20.92 197.057 20.75 197.827 20.75C198.607 20.75 199.282 20.92 199.852 21.26C200.432 21.59 200.872 22.035 201.172 22.595C201.472 23.145 201.622 23.74 201.622 24.38ZM200.947 24.635C200.977 23.915 200.847 23.305 200.557 22.805C200.277 22.305 199.892 21.935 199.402 21.695C198.912 21.445 198.382 21.32 197.812 21.32C197.242 21.32 196.712 21.445 196.222 21.695C195.742 21.935 195.347 22.305 195.037 22.805C194.737 23.305 194.577 23.915 194.557 24.635H200.947Z" fill="white"/>
<path d="M203.587 17.9V29H202.912V17.9H203.587Z" fill="white"/>
<path d="M208.897 29.12C208.137 29.12 207.452 28.95 206.842 28.61C206.232 28.27 205.752 27.785 205.402 27.155C205.062 26.515 204.892 25.77 204.892 24.92C204.892 24.08 205.067 23.345 205.417 22.715C205.767 22.075 206.247 21.59 206.857 21.26C207.477 20.92 208.167 20.75 208.927 20.75C209.687 20.75 210.372 20.92 210.982 21.26C211.592 21.59 212.067 22.07 212.407 22.7C212.757 23.33 212.932 24.07 212.932 24.92C212.932 25.77 212.757 26.515 212.407 27.155C212.057 27.785 211.572 28.27 210.952 28.61C210.342 28.95 209.657 29.12 208.897 29.12ZM208.897 28.52C209.487 28.52 210.037 28.39 210.547 28.13C211.067 27.86 211.482 27.455 211.792 26.915C212.102 26.375 212.257 25.71 212.257 24.92C212.257 24.14 212.102 23.48 211.792 22.94C211.482 22.4 211.072 22 210.562 21.74C210.052 21.47 209.502 21.335 208.912 21.335C208.322 21.335 207.772 21.47 207.262 21.74C206.762 22 206.357 22.4 206.047 22.94C205.737 23.48 205.582 24.14 205.582 24.92C205.582 25.71 205.732 26.375 206.032 26.915C206.342 27.455 206.747 27.86 207.247 28.13C207.757 28.39 208.307 28.52 208.897 28.52Z" fill="white"/>
</svg>
