<svg width="213" height="33" viewBox="0 0 213 33" fill="none" xmlns="http://www.w3.org/2000/svg">
<path d="M18.808 11.648C18.808 12.992 18.484 14.252 17.836 15.428C17.212 16.604 16.216 17.552 14.848 18.272C13.504 18.992 11.8 19.352 9.736 19.352H5.524V29H0.484V3.872H9.736C11.68 3.872 13.336 4.208 14.704 4.88C16.072 5.552 17.092 6.476 17.764 7.652C18.46 8.828 18.808 10.16 18.808 11.648ZM9.52 15.284C10.912 15.284 11.944 14.972 12.616 14.348C13.288 13.7 13.624 12.8 13.624 11.648C13.624 9.2 12.256 7.976 9.52 7.976H5.524V15.284H9.52ZM29.4423 29.324C27.5223 29.324 25.7943 28.904 24.2583 28.064C22.7223 27.2 21.5103 25.988 20.6223 24.428C19.7583 22.868 19.3263 21.068 19.3263 19.028C19.3263 16.988 19.7703 15.188 20.6583 13.628C21.5703 12.068 22.8063 10.868 24.3663 10.028C25.9263 9.164 27.6663 8.732 29.5863 8.732C31.5063 8.732 33.2463 9.164 34.8063 10.028C36.3663 10.868 37.5903 12.068 38.4783 13.628C39.3903 15.188 39.8463 16.988 39.8463 19.028C39.8463 21.068 39.3783 22.868 38.4423 24.428C37.5303 25.988 36.2823 27.2 34.6983 28.064C33.1383 28.904 31.3863 29.324 29.4423 29.324ZM29.4423 24.932C30.3543 24.932 31.2063 24.716 31.9983 24.284C32.8143 23.828 33.4623 23.156 33.9423 22.268C34.4223 21.38 34.6623 20.3 34.6623 19.028C34.6623 17.132 34.1583 15.68 33.1503 14.672C32.1663 13.64 30.9543 13.124 29.5143 13.124C28.0743 13.124 26.8623 13.64 25.8783 14.672C24.9183 15.68 24.4383 17.132 24.4383 19.028C24.4383 20.924 24.9063 22.388 25.8423 23.42C26.8023 24.428 28.0023 24.932 29.4423 24.932ZM46.7834 12.152C47.4314 11.096 48.2714 10.268 49.3034 9.668C50.3594 9.068 51.5594 8.768 52.9034 8.768V14.06H51.5714C49.9874 14.06 48.7874 14.432 47.9714 15.176C47.1794 15.92 46.7834 17.216 46.7834 19.064V29H41.7434V9.056H46.7834V12.152ZM60.3661 13.196V22.844C60.3661 23.516 60.5221 24.008 60.8341 24.32C61.1701 24.608 61.7221 24.752 62.4901 24.752H64.8301V29H61.6621C57.4141 29 55.2901 26.936 55.2901 22.808V13.196H52.9141V9.056H55.2901V4.124H60.3661V9.056H64.8301V13.196H60.3661ZM75.7991 13.196H72.3071V29H67.1951V13.196H64.9271V9.056H67.1951V8.048C67.1951 5.6 67.8911 3.8 69.2831 2.648C70.6751 1.496 72.7751 0.955999 75.5831 1.028V5.276C74.3591 5.252 73.5071 5.456 73.0271 5.888C72.5471 6.32 72.3071 7.1 72.3071 8.228V9.056H75.7991V13.196ZM86.1213 29.324C84.2013 29.324 82.4733 28.904 80.9373 28.064C79.4013 27.2 78.1893 25.988 77.3013 24.428C76.4373 22.868 76.0053 21.068 76.0053 19.028C76.0053 16.988 76.4493 15.188 77.3373 13.628C78.2493 12.068 79.4853 10.868 81.0453 10.028C82.6053 9.164 84.3453 8.732 86.2653 8.732C88.1853 8.732 89.9253 9.164 91.4853 10.028C93.0453 10.868 94.2693 12.068 95.1573 13.628C96.0693 15.188 96.5253 16.988 96.5253 19.028C96.5253 21.068 96.0573 22.868 95.1212 24.428C94.2093 25.988 92.9613 27.2 91.3773 28.064C89.8173 28.904 88.0653 29.324 86.1213 29.324ZM86.1213 24.932C87.0333 24.932 87.8853 24.716 88.6773 24.284C89.4933 23.828 90.1413 23.156 90.6213 22.268C91.1013 21.38 91.3413 20.3 91.3413 19.028C91.3413 17.132 90.8373 15.68 89.8293 14.672C88.8453 13.64 87.6333 13.124 86.1933 13.124C84.7533 13.124 83.5413 13.64 82.5573 14.672C81.5973 15.68 81.1173 17.132 81.1173 19.028C81.1173 20.924 81.5853 22.388 82.5213 23.42C83.4813 24.428 84.6813 24.932 86.1213 24.932ZM103.462 2.36V29H98.4223V2.36H103.462ZM109.198 6.68C108.31 6.68 107.566 6.404 106.966 5.852C106.39 5.276 106.102 4.568 106.102 3.728C106.102 2.888 106.39 2.192 106.966 1.64C107.566 1.064 108.31 0.775999 109.198 0.775999C110.086 0.775999 110.818 1.064 111.394 1.64C111.994 2.192 112.294 2.888 112.294 3.728C112.294 4.568 111.994 5.276 111.394 5.852C110.818 6.404 110.086 6.68 109.198 6.68ZM111.682 9.056V29H106.642V9.056H111.682ZM123.717 29.324C121.797 29.324 120.069 28.904 118.533 28.064C116.997 27.2 115.785 25.988 114.897 24.428C114.033 22.868 113.601 21.068 113.601 19.028C113.601 16.988 114.045 15.188 114.933 13.628C115.845 12.068 117.081 10.868 118.641 10.028C120.201 9.164 121.941 8.732 123.861 8.732C125.781 8.732 127.521 9.164 129.081 10.028C130.641 10.868 131.865 12.068 132.753 13.628C133.665 15.188 134.121 16.988 134.121 19.028C134.121 21.068 133.653 22.868 132.717 24.428C131.805 25.988 130.557 27.2 128.973 28.064C127.413 28.904 125.661 29.324 123.717 29.324ZM123.717 24.932C124.629 24.932 125.481 24.716 126.273 24.284C127.089 23.828 127.737 23.156 128.217 22.268C128.697 21.38 128.937 20.3 128.937 19.028C128.937 17.132 128.433 15.68 127.425 14.672C126.441 13.64 125.229 13.124 123.789 13.124C122.349 13.124 121.137 13.64 120.153 14.672C119.193 15.68 118.713 17.132 118.713 19.028C118.713 20.924 119.181 22.388 120.117 23.42C121.077 24.428 122.277 24.932 123.717 24.932ZM146.088 23.555C146.698 23.665 147.208 23.965 147.618 24.455C148.038 24.945 148.248 25.52 148.248 26.18C148.248 26.72 148.118 27.205 147.858 27.635C147.608 28.055 147.228 28.39 146.718 28.64C146.218 28.88 145.608 29 144.888 29H141.543V18.47H144.828C145.878 18.47 146.668 18.715 147.198 19.205C147.738 19.685 148.008 20.31 148.008 21.08C148.008 21.75 147.828 22.295 147.468 22.715C147.108 23.125 146.648 23.405 146.088 23.555ZM142.218 23.255H144.858C145.648 23.255 146.253 23.07 146.673 22.7C147.103 22.32 147.318 21.8 147.318 21.14C147.318 20.5 147.108 19.995 146.688 19.625C146.268 19.255 145.633 19.07 144.783 19.07H142.218V23.255ZM144.843 28.415C145.693 28.415 146.358 28.215 146.838 27.815C147.328 27.405 147.573 26.845 147.573 26.135C147.573 25.435 147.323 24.88 146.823 24.47C146.333 24.05 145.658 23.84 144.798 23.84H142.218V28.415H144.843ZM155.839 20.855L151.099 32.825H150.409L151.924 29L148.504 20.855H149.239L152.299 28.25L155.149 20.855H155.839ZM169.904 18.695V29H169.229V20.105L165.269 29H164.729L160.754 20.105V29H160.079V18.695H160.799L164.999 28.115L169.199 18.695H169.904ZM171.213 24.92C171.213 24.08 171.378 23.345 171.708 22.715C172.048 22.085 172.513 21.6 173.103 21.26C173.703 20.92 174.383 20.75 175.143 20.75C176.003 20.75 176.733 20.96 177.333 21.38C177.933 21.8 178.353 22.335 178.593 22.985V20.855H179.268V29H178.593V26.855C178.353 27.515 177.928 28.06 177.318 28.49C176.718 28.91 175.993 29.12 175.143 29.12C174.383 29.12 173.703 28.95 173.103 28.61C172.513 28.26 172.048 27.77 171.708 27.14C171.378 26.5 171.213 25.76 171.213 24.92ZM178.593 24.92C178.593 24.21 178.443 23.585 178.143 23.045C177.853 22.495 177.453 22.075 176.943 21.785C176.433 21.485 175.863 21.335 175.233 21.335C174.573 21.335 173.993 21.48 173.493 21.77C172.993 22.05 172.603 22.46 172.323 23C172.043 23.54 171.903 24.18 171.903 24.92C171.903 25.66 172.043 26.3 172.323 26.84C172.603 27.38 172.993 27.795 173.493 28.085C174.003 28.375 174.583 28.52 175.233 28.52C175.863 28.52 176.433 28.375 176.943 28.085C177.463 27.785 177.868 27.365 178.158 26.825C178.448 26.275 178.593 25.64 178.593 24.92ZM181.651 22.535C181.851 21.935 182.206 21.48 182.716 21.17C183.226 20.85 183.876 20.69 184.666 20.69V21.395H184.441C183.641 21.395 182.976 21.625 182.446 22.085C181.916 22.535 181.651 23.275 181.651 24.305V29H180.976V20.855H181.651V22.535ZM185.05 24.92C185.05 24.07 185.215 23.33 185.545 22.7C185.885 22.07 186.35 21.59 186.94 21.26C187.54 20.92 188.225 20.75 188.995 20.75C190.015 20.75 190.85 21.005 191.5 21.515C192.16 22.025 192.57 22.71 192.73 23.57H192.025C191.895 22.87 191.555 22.32 191.005 21.92C190.465 21.52 189.795 21.32 188.995 21.32C188.395 21.32 187.85 21.455 187.36 21.725C186.87 21.985 186.475 22.39 186.175 22.94C185.885 23.48 185.74 24.14 185.74 24.92C185.74 25.71 185.885 26.375 186.175 26.915C186.475 27.455 186.87 27.86 187.36 28.13C187.85 28.4 188.395 28.535 188.995 28.535C189.795 28.535 190.465 28.335 191.005 27.935C191.555 27.535 191.895 26.985 192.025 26.285H192.73C192.57 27.135 192.16 27.82 191.5 28.34C190.84 28.86 190.005 29.12 188.995 29.12C188.225 29.12 187.54 28.95 186.94 28.61C186.35 28.27 185.885 27.785 185.545 27.155C185.215 26.515 185.05 25.77 185.05 24.92ZM201.372 24.38C201.372 24.74 201.362 25.01 201.342 25.19H194.307C194.327 25.92 194.487 26.535 194.787 27.035C195.087 27.535 195.482 27.91 195.972 28.16C196.462 28.41 196.997 28.535 197.577 28.535C198.377 28.535 199.047 28.34 199.587 27.95C200.127 27.55 200.467 27.01 200.607 26.33H201.312C201.152 27.16 200.742 27.835 200.082 28.355C199.422 28.865 198.587 29.12 197.577 29.12C196.817 29.12 196.137 28.95 195.537 28.61C194.937 28.27 194.467 27.785 194.127 27.155C193.787 26.515 193.617 25.77 193.617 24.92C193.617 24.07 193.782 23.33 194.112 22.7C194.452 22.07 194.922 21.59 195.522 21.26C196.122 20.92 196.807 20.75 197.577 20.75C198.357 20.75 199.032 20.92 199.602 21.26C200.182 21.59 200.622 22.035 200.922 22.595C201.222 23.145 201.372 23.74 201.372 24.38ZM200.697 24.635C200.727 23.915 200.597 23.305 200.307 22.805C200.027 22.305 199.642 21.935 199.152 21.695C198.662 21.445 198.132 21.32 197.562 21.32C196.992 21.32 196.462 21.445 195.972 21.695C195.492 21.935 195.097 22.305 194.787 22.805C194.487 23.305 194.327 23.915 194.307 24.635H200.697ZM203.337 17.9V29H202.662V17.9H203.337ZM208.646 29.12C207.886 29.12 207.201 28.95 206.591 28.61C205.981 28.27 205.501 27.785 205.151 27.155C204.811 26.515 204.641 25.77 204.641 24.92C204.641 24.08 204.816 23.345 205.166 22.715C205.516 22.075 205.996 21.59 206.606 21.26C207.226 20.92 207.916 20.75 208.676 20.75C209.436 20.75 210.121 20.92 210.731 21.26C211.341 21.59 211.816 22.07 212.156 22.7C212.506 23.33 212.681 24.07 212.681 24.92C212.681 25.77 212.506 26.515 212.156 27.155C211.806 27.785 211.321 28.27 210.701 28.61C210.091 28.95 209.406 29.12 208.646 29.12ZM208.646 28.52C209.236 28.52 209.786 28.39 210.296 28.13C210.816 27.86 211.231 27.455 211.541 26.915C211.851 26.375 212.006 25.71 212.006 24.92C212.006 24.14 211.851 23.48 211.541 22.94C211.231 22.4 210.821 22 210.311 21.74C209.801 21.47 209.251 21.335 208.661 21.335C208.071 21.335 207.521 21.47 207.011 21.74C206.511 22 206.106 22.4 205.796 22.94C205.486 23.48 205.331 24.14 205.331 24.92C205.331 25.71 205.481 26.375 205.781 26.915C206.091 27.455 206.496 27.86 206.996 28.13C207.506 28.39 208.056 28.52 208.646 28.52Z" fill="#2C2478"/>
</svg>
